<svg width="16" height="16" viewBox="0 0 16 16" fill="none" xmlns="http://www.w3.org/2000/svg">
<rect width="16" height="16" rx="3" fill="white"/>
<g clip-path="url(#clip0_1_6)">
<path d="M9.34868 15.9564C8.15919 15.9564 7.05777 15.7605 6.04448 15.3688C5.03117 14.9624 4.1427 14.4037 3.37906 13.6925C2.6301 12.9669 2.04267 12.1179 1.61679 11.1456C1.2056 10.1733 1 9.12107 1 7.98911C1 6.84264 1.2056 5.79049 1.61679 4.83266C2.04267 3.86032 2.6301 3.0186 3.37906 2.30749C4.1427 1.59638 5.02383 1.03765 6.02245 0.631297C7.03575 0.224948 8.12982 0.0217743 9.30463 0.0217743C10.5382 0.0217743 11.647 0.217693 12.6309 0.609529C13.6148 0.986853 14.4814 1.51656 15.2303 2.19865L12.5869 4.81089C12.2197 4.40454 11.7645 4.08526 11.2212 3.85306C10.6778 3.62086 10.039 3.50477 9.30463 3.50477C8.67321 3.50477 8.0931 3.60635 7.56442 3.80954C7.05043 4.0127 6.60252 4.31747 6.2207 4.72381C5.83887 5.11565 5.53782 5.5873 5.31754 6.13878C5.11194 6.69025 5.00914 7.30706 5.00914 7.98911C5.00914 8.67117 5.11194 9.288 5.31754 9.83947C5.53782 10.3909 5.83887 10.8698 6.2207 11.2762C6.60252 11.668 7.05043 11.9728 7.56442 12.1905C8.0931 12.3937 8.67321 12.4952 9.30463 12.4952C10.039 12.4952 10.6851 12.3864 11.2432 12.1688C11.8012 11.9365 12.2785 11.61 12.675 11.1891L15.3184 13.8014C14.5547 14.4834 13.6883 15.0132 12.719 15.3905C11.7645 15.7678 10.6411 15.9564 9.34868 15.9564Z" fill="black"/>
</g>
<defs>
<clipPath id="clip0_1_6">
<rect width="15" height="16" fill="white" transform="translate(1)"/>
</clipPath>
</defs>
</svg>
